<svg width="20" height="20" viewBox="0 0 20 20" fill="none" xmlns="http://www.w3.org/2000/svg">
<path fill-rule="evenodd" clip-rule="evenodd" d="M8.955 19.9451C14.447 20.5231 19.368 16.5381 19.945 11.0451C20.523 5.55305 16.538 0.632056 11.045 0.0550558C5.553 -0.521944 0.631997 3.46205 0.0549967 8.95505C-0.523003 14.4471 3.462 19.3681 8.955 19.9451ZM10 14.0001C11.0609 14.0001 12.0783 13.5786 12.8284 12.8285C13.5786 12.0783 14 11.0609 14 10.0001C14 8.93919 13.5786 7.92177 12.8284 7.17163C12.0783 6.42148 11.0609 6.00005 10 6.00005C8.93913 6.00005 7.92171 6.42148 7.17157 7.17163C6.42142 7.92177 6 8.93919 6 10.0001C6 11.0609 6.42142 12.0783 7.17157 12.8285C7.92171 13.5786 8.93913 14.0001 10 14.0001Z" fill="url(#paint0_linear_1852_1594)"/>
<defs>
<linearGradient id="paint0_linear_1852_1594" x1="11.045" y1="0.0550558" x2="10" y2="10.0001" gradientUnits="userSpaceOnUse">
<stop offset="0.115" stop-color="#FF003D" stop-opacity="0.92"/>
<stop offset="1" stop-color="white" stop-opacity="0"/>
</linearGradient>
</defs>
</svg>
