<svg width="14" height="14" viewBox="0 0 14 14" fill="none" xmlns="http://www.w3.org/2000/svg">
<path d="M6.5 0.828125C6.5 0.692792 6.54666 0.578125 6.64 0.484792C6.68611 0.435459 6.74185 0.396104 6.80377 0.369158C6.86568 0.342212 6.93247 0.328247 7 0.328125C7.13533 0.328125 7.25 0.380125 7.344 0.484792C7.448 0.578125 7.5 0.692792 7.5 0.828125V8.48479L9 6.98479C9.04609 6.93543 9.10182 6.89605 9.16374 6.8691C9.22567 6.84215 9.29246 6.82821 9.36 6.82812C9.49466 6.82812 9.60933 6.88013 9.70333 6.98479C9.80733 7.07812 9.85933 7.19812 9.85933 7.34412C9.86003 7.40928 9.84642 7.4738 9.81947 7.53312C9.79251 7.59244 9.75287 7.64513 9.70333 7.68746L7.35933 10.0475C7.26185 10.1383 7.13327 10.1884 7 10.1875C6.8665 10.1886 6.73765 10.1385 6.64 10.0475L4.29666 7.68746C4.24709 7.64516 4.20742 7.59248 4.18047 7.53315C4.15351 7.47382 4.13992 7.40929 4.14066 7.34412C4.14066 7.19746 4.19266 7.07812 4.29666 6.98412C4.33904 6.93447 4.39182 6.89474 4.45128 6.86778C4.51073 6.84082 4.57539 6.82728 4.64066 6.82812C4.70809 6.8283 4.77476 6.84229 4.83656 6.86924C4.89836 6.89618 4.95399 6.93551 5 6.98479L6.5 8.48479V0.828125Z" fill="black"/>
<path d="M1.23218 7.96113C1.25638 8.01783 1.26774 8.07919 1.26544 8.14081V10.6715C1.26146 10.9399 1.31053 11.2064 1.40983 11.4558C1.50914 11.7053 1.65672 11.9326 1.84411 12.1248C2.03047 12.3166 2.25415 12.4682 2.50135 12.5703C2.74855 12.6723 3.01404 12.7226 3.28144 12.7181H10.7188C11.2808 12.7181 11.7554 12.5201 12.1408 12.1248C12.5368 11.7181 12.7348 11.2341 12.7348 10.6715V8.14014C12.7325 8.07836 12.7439 8.01684 12.7682 7.96001C12.7925 7.90318 12.8292 7.85245 12.8754 7.81147C12.9177 7.76699 12.9685 7.73162 13.025 7.70754C13.0814 7.68346 13.1421 7.67119 13.2034 7.67147C13.2648 7.67127 13.3256 7.68365 13.382 7.70784C13.4384 7.73204 13.4893 7.76753 13.5314 7.81214C13.5776 7.85304 13.6142 7.90366 13.6385 7.96037C13.6629 8.01708 13.6743 8.07847 13.6721 8.14014V10.6721C13.6721 11.4948 13.3801 12.2035 12.7968 12.7968C12.2241 13.3801 11.5314 13.6721 10.7188 13.6721H3.28078C2.46878 13.6721 1.77078 13.3801 1.18744 12.7968C0.614776 12.2035 0.328776 11.4948 0.328776 10.6721V8.14081C0.326377 8.07908 0.337688 8.01759 0.361896 7.96076C0.386103 7.90393 0.422605 7.85318 0.468776 7.81214C0.510999 7.76765 0.561882 7.73228 0.618292 7.70821C0.674702 7.68413 0.735443 7.67185 0.796776 7.67214C0.858269 7.67185 0.919168 7.68418 0.975701 7.70838C1.03224 7.73257 1.0832 7.76812 1.12544 7.81281C1.17152 7.85377 1.20797 7.90442 1.23218 7.96113Z" fill="black"/>
</svg>
