<svg width="24" height="24" viewBox="0 0 24 24" fill="none" xmlns="http://www.w3.org/2000/svg">
<path fill-rule="evenodd" clip-rule="evenodd" d="M10.608 21.9032C16.078 22.6712 21.134 18.8612 21.903 13.3922C22.671 7.92221 18.861 2.86621 13.392 2.09721C7.92196 1.33021 2.86596 5.14021 2.09696 10.6082C1.32896 16.0782 5.13896 21.1342 10.608 21.9032ZM12 16.0002C13.0608 16.0002 14.0782 15.5788 14.8284 14.8286C15.5785 14.0785 16 13.0611 16 12.0002C16 10.9393 15.5785 9.92193 14.8284 9.17178C14.0782 8.42164 13.0608 8.00021 12 8.00021C10.9391 8.00021 9.92168 8.42164 9.17153 9.17178C8.42139 9.92193 7.99996 10.9393 7.99996 12.0002C7.99996 13.0611 8.42139 14.0785 9.17153 14.8286C9.92168 15.5788 10.9391 16.0002 12 16.0002Z" fill="#3D00A2"/>
<path fill-rule="evenodd" clip-rule="evenodd" d="M5.17988 4.68588C1.13988 8.45288 0.919882 14.7809 4.68588 18.8199C8.45288 22.8599 14.7809 23.0799 18.8199 19.3139C22.8599 15.5469 23.0799 9.21888 19.3139 5.17988C15.5469 1.13988 9.21888 0.919882 5.17988 4.68588ZM11.9999 15.9999C13.0607 15.9999 14.0782 15.5785 14.8283 14.8283C15.5785 14.0782 15.9999 13.0607 15.9999 11.9999C15.9999 10.939 15.5785 9.9216 14.8283 9.17146C14.0782 8.42131 13.0607 7.99988 11.9999 7.99988C10.939 7.99988 9.9216 8.42131 9.17146 9.17146C8.42131 9.9216 7.99988 10.939 7.99988 11.9999C7.99988 13.0607 8.42131 14.0782 9.17146 14.8283C9.9216 15.5785 10.939 15.9999 11.9999 15.9999Z" fill="url(#paint0_linear_1952_282)"/>
<path fill-rule="evenodd" clip-rule="evenodd" d="M2.54512 15.2561C4.34312 20.4781 10.0341 23.2531 15.2551 21.4561C20.4781 19.6571 23.2531 13.9661 21.4551 8.74414C19.6571 3.52214 13.9661 0.747143 8.74512 2.54414C3.52212 4.34314 0.747122 10.0341 2.54512 15.2561ZM12.0001 16.0001C13.061 16.0001 14.0784 15.5787 14.8286 14.8286C15.5787 14.0784 16.0001 13.061 16.0001 12.0001C16.0001 10.9393 15.5787 9.92186 14.8286 9.17172C14.0784 8.42157 13.061 8.00014 12.0001 8.00014C10.9393 8.00014 9.92184 8.42157 9.1717 9.17172C8.42155 9.92186 8.00012 10.9393 8.00012 12.0001C8.00012 13.061 8.42155 14.0784 9.1717 14.8286C9.92184 15.5787 10.9393 16.0001 12.0001 16.0001Z" fill="url(#paint1_linear_1952_282)"/>
<path fill-rule="evenodd" clip-rule="evenodd" d="M17.7359 20.1909C22.2599 17.0239 23.3589 10.7879 20.1919 6.26393C17.0239 1.73993 10.7879 0.640927 6.26393 3.80793C1.73993 6.97593 0.640927 13.2119 3.80793 17.7359C6.97593 22.2599 13.2119 23.3589 17.7359 20.1909ZM11.9999 15.9999C13.0608 15.9999 14.0782 15.5785 14.8284 14.8284C15.5785 14.0782 15.9999 13.0608 15.9999 11.9999C15.9999 10.9391 15.5785 9.92165 14.8284 9.1715C14.0782 8.42135 13.0608 7.99993 11.9999 7.99993C10.9391 7.99993 9.92165 8.42135 9.1715 9.1715C8.42135 9.92165 7.99993 10.9391 7.99993 11.9999C7.99993 13.0608 8.42135 14.0782 9.1715 14.8284C9.92165 15.5785 10.9391 15.9999 11.9999 15.9999Z" fill="url(#paint2_linear_1952_282)"/>
<path fill-rule="evenodd" clip-rule="evenodd" d="M12.6978 2.02413C7.18776 1.64013 2.40976 5.79313 2.02376 11.3021C1.63876 16.8121 5.79276 21.5901 11.3018 21.9761C16.8118 22.3611 21.5898 18.2061 21.9758 12.6971C22.3608 7.18813 18.2068 2.41013 12.6978 2.02413ZM11.9998 16.0001C13.0606 16.0001 14.078 15.5787 14.8282 14.8286C15.5783 14.0784 15.9998 13.061 15.9998 12.0001C15.9998 10.9393 15.5783 9.92185 14.8282 9.17171C14.078 8.42156 13.0606 8.00013 11.9998 8.00013C10.9389 8.00013 9.92148 8.42156 9.17134 9.17171C8.42119 9.92185 7.99976 10.9393 7.99976 12.0001C7.99976 13.061 8.42119 14.0784 9.17134 14.8286C9.92148 15.5787 10.9389 16.0001 11.9998 16.0001Z" fill="url(#paint3_linear_1952_282)"/>
<path fill-rule="evenodd" clip-rule="evenodd" d="M21.7818 14.0789C22.9298 8.6769 19.4818 3.3669 14.0788 2.2189C8.67683 1.0699 3.36683 4.5179 2.21983 9.9199C1.07083 15.3219 4.51983 20.6319 9.92183 21.7799C15.3238 22.9289 20.6338 19.4799 21.7818 14.0779V14.0789ZM11.9998 15.9989C13.0607 15.9989 14.0781 15.5775 14.8283 14.8273C15.5784 14.0772 15.9998 13.0598 15.9998 11.9989C15.9998 10.938 15.5784 9.92061 14.8283 9.17047C14.0781 8.42032 13.0607 7.9989 11.9998 7.9989C10.939 7.9989 9.92155 8.42032 9.1714 9.17047C8.42125 9.92061 7.99983 10.938 7.99983 11.9989C7.99983 13.0598 8.42125 14.0772 9.1714 14.8273C9.92155 15.5775 10.939 15.9989 11.9998 15.9989Z" fill="url(#paint4_linear_1952_282)"/>
<path fill-rule="evenodd" clip-rule="evenodd" d="M16.9998 3.3398C12.2168 0.577799 6.1008 2.2168 3.3398 6.9998C0.577799 11.7828 2.2168 17.8988 6.9998 20.6598C11.7828 23.4218 17.8988 21.7828 20.6598 16.9998C23.4218 12.2168 21.7828 6.1008 16.9998 3.3398ZM11.9998 15.9998C13.0607 15.9998 14.0781 15.5784 14.8282 14.8282C15.5784 14.0781 15.9998 13.0607 15.9998 11.9998C15.9998 10.9389 15.5784 9.92152 14.8282 9.17137C14.0781 8.42123 13.0607 7.9998 11.9998 7.9998C10.9389 7.9998 9.92152 8.42123 9.17137 9.17137C8.42123 9.92152 7.9998 10.9389 7.9998 11.9998C7.9998 13.0607 8.42123 14.0781 9.17137 14.8282C9.92152 15.5784 10.9389 15.9998 11.9998 15.9998Z" fill="url(#paint5_linear_1952_282)"/>
<path fill-rule="evenodd" clip-rule="evenodd" d="M21.3969 8.57989C19.5079 3.38989 13.7699 0.713887 8.57989 2.60289C3.38989 4.49289 0.713887 10.2299 2.60289 15.4199C4.49189 20.6099 10.2299 23.2859 15.4199 21.3969C20.6099 19.5079 23.2859 13.7699 21.3969 8.57989ZM11.9999 15.9999C13.0608 15.9999 14.0782 15.5785 14.8283 14.8283C15.5785 14.0782 15.9999 13.0608 15.9999 11.9999C15.9999 10.939 15.5785 9.92161 14.8283 9.17146C14.0782 8.42131 13.0608 7.99989 11.9999 7.99989C10.939 7.99989 9.92161 8.42131 9.17146 9.17146C8.42131 9.92161 7.99989 10.939 7.99989 11.9999C7.99989 13.0608 8.42131 14.0782 9.17146 14.8283C9.92161 15.5785 10.939 15.9999 11.9999 15.9999Z" fill="url(#paint6_linear_1952_282)"/>
<path fill-rule="evenodd" clip-rule="evenodd" d="M10.9552 21.9451C16.4472 22.5231 21.3682 18.5381 21.9452 13.0451C22.5232 7.55305 18.5382 2.63206 13.0452 2.05506C7.55323 1.47806 2.63223 5.46205 2.05523 10.9551C1.47723 16.4471 5.46222 21.3681 10.9552 21.9451ZM12.0002 16.0001C13.0611 16.0001 14.0785 15.5786 14.8287 14.8285C15.5788 14.0783 16.0002 13.0609 16.0002 12.0001C16.0002 10.9392 15.5788 9.92177 14.8287 9.17163C14.0785 8.42148 13.0611 8.00005 12.0002 8.00005C10.9394 8.00005 9.92194 8.42148 9.1718 9.17163C8.42165 9.92177 8.00023 10.9392 8.00023 12.0001C8.00023 13.0609 8.42165 14.0783 9.1718 14.8285C9.92194 15.5786 10.9394 16.0001 12.0002 16.0001Z" fill="url(#paint7_linear_1952_282)"/>
<defs>
<linearGradient id="paint0_linear_1952_282" x1="18.8199" y1="19.3139" x2="11.9999" y2="11.9999" gradientUnits="userSpaceOnUse">
<stop offset="0.188" stop-color="#FFF500"/>
<stop offset="1" stop-color="white" stop-opacity="0"/>
</linearGradient>
<linearGradient id="paint1_linear_1952_282" x1="21.4551" y1="8.74414" x2="12.0001" y2="12.0001" gradientUnits="userSpaceOnUse">
<stop offset="0.271" stop-color="#FFD600"/>
<stop offset="1" stop-color="white" stop-opacity="0"/>
</linearGradient>
<linearGradient id="paint2_linear_1952_282" x1="6.26393" y1="3.80793" x2="11.9999" y2="11.9999" gradientUnits="userSpaceOnUse">
<stop offset="0.146" stop-color="#EB00FF"/>
<stop offset="1" stop-color="white" stop-opacity="0"/>
</linearGradient>
<linearGradient id="paint3_linear_1952_282" x1="11.3018" y1="21.9761" x2="11.9998" y2="12.0001" gradientUnits="userSpaceOnUse">
<stop offset="0.38" stop-color="#3FFF52"/>
<stop offset="1" stop-color="white" stop-opacity="0"/>
</linearGradient>
<linearGradient id="paint4_linear_1952_282" x1="2.21883" y1="9.9209" x2="11.9998" y2="11.9999" gradientUnits="userSpaceOnUse">
<stop offset="0.198" stop-color="#8000FF"/>
<stop offset="1" stop-color="white" stop-opacity="0"/>
</linearGradient>
<linearGradient id="paint5_linear_1952_282" x1="6.9998" y1="20.6598" x2="11.9998" y2="11.9998" gradientUnits="userSpaceOnUse">
<stop offset="0.089" stop-color="#00F0FF"/>
<stop offset="1" stop-color="white" stop-opacity="0"/>
</linearGradient>
<linearGradient id="paint6_linear_1952_282" x1="2.60289" y1="15.4199" x2="11.9999" y2="11.9999" gradientUnits="userSpaceOnUse">
<stop offset="0.026" stop-color="#0047FF"/>
<stop offset="1" stop-color="white" stop-opacity="0"/>
</linearGradient>
<linearGradient id="paint7_linear_1952_282" x1="13.0452" y1="2.05506" x2="12.0002" y2="12.0001" gradientUnits="userSpaceOnUse">
<stop offset="0.115" stop-color="#FF003D" stop-opacity="0.92"/>
<stop offset="1" stop-color="white" stop-opacity="0"/>
</linearGradient>
</defs>
</svg>
