<svg width="20" height="21" viewBox="0 0 20 21" fill="none" xmlns="http://www.w3.org/2000/svg">
<path d="M-0.00800323 4.50019C-0.00800323 3.39019 0.381997 2.44519 1.164 1.66419C1.945 0.883187 2.891 0.492188 4 0.492188V4.50019H-0.00800323ZM8.008 4.50019H4V8.50819H-0.00800323V12.4922H4V16.5002H-0.00800323C-0.00800323 17.6102 0.381997 18.5552 1.164 19.3362C1.945 20.1172 2.891 20.5082 4 20.5082V16.5002H8.008V20.5082H11.992V16.5002H16V20.5082C17.11 20.5082 18.055 20.1182 18.836 19.3362C19.617 18.5552 20.008 17.6092 20.008 16.5002H16V12.4922H20.008V8.50819H16V4.50019H20.008C20.008 3.39019 19.618 2.44519 18.836 1.66419C18.055 0.883187 17.109 0.492188 16 0.492188V4.50019H11.992V0.492188H8.008V4.50019ZM8.008 8.50819V4.50019H11.992V8.50819H8.008ZM8.008 12.4922H4V8.50819H8.008V12.4922ZM11.992 12.4922V8.50819H16V12.4922H11.992ZM11.992 12.4922V16.5002H8.008V12.4922H11.992Z" fill="#BFBFBF"/>
</svg>
