<svg width="100" height="26" viewBox="0 0 100 26" fill="none" xmlns="http://www.w3.org/2000/svg">
<path d="M21.0444 7.47183H18.2825C18.1208 7.47183 17.9907 7.61804 17.9907 7.79955V25.5616C17.9907 25.743 18.1208 25.8893 18.2825 25.8893H21.0444C21.206 25.8893 21.3362 25.743 21.3362 25.5616V7.79955C21.3347 7.61804 21.2045 7.47183 21.0444 7.47183Z" fill="#C209C1"/>
<path d="M51.6855 16.6409C50.704 15.8544 49.308 15.3233 47.2926 14.9654C44.7924 14.4814 43.4369 13.9687 43.4369 12.6411C43.4369 11.6042 44.2942 10.495 46.7001 10.495C47.8896 10.495 48.8008 10.9202 49.4083 11.7588C49.6971 12.1554 49.9155 12.6462 50.0591 13.2142C50.1159 13.4394 50.2985 13.5974 50.505 13.5974L52.6745 13.5957C52.8107 13.5957 52.9408 13.5285 53.0276 13.4108C53.1158 13.2915 53.1533 13.1368 53.1293 12.984C52.7508 10.569 51.461 9.2413 51.0751 8.89174C49.9484 7.87163 48.4761 7.35569 46.7001 7.35569C44.8478 7.35569 43.2498 7.86491 42.0813 8.82956C40.8933 9.81101 40.2649 11.1656 40.2649 12.7487C40.2649 16.5098 43.3351 17.5971 46.6537 18.2122C49.7958 18.7366 50.2192 19.6978 50.2192 20.57C50.2192 21.9801 48.8711 22.8574 46.7001 22.8574C46.3216 22.8574 45.9625 22.822 45.6318 22.7531C45.6228 22.7481 45.6139 22.7431 45.6034 22.7413C44.1715 22.4187 43.214 21.4154 42.6753 19.6794C42.6109 19.471 42.4358 19.3298 42.2384 19.3298H39.9476C39.81 19.3298 39.6813 19.3987 39.5931 19.5164C39.5048 19.6356 39.4689 19.792 39.4928 19.9432C39.6514 20.918 40.0658 21.7582 40.0839 21.7935L40.0854 21.7969C41.0728 24.1917 42.97 25.6219 45.575 25.9345C45.5794 25.9345 45.5825 25.9362 45.5869 25.9345C45.952 25.9781 46.326 26 46.7001 26C48.5824 26 50.2851 25.4571 51.494 24.4724C52.7164 23.4757 53.3912 22.0658 53.3912 20.4995C53.3912 18.8223 52.8331 17.5602 51.6855 16.6409Z" fill="#C209C1"/>
<path d="M99.8594 20.7702C99.7349 20.5954 99.5509 20.4962 99.3519 20.4962H97.1887C96.9208 20.4962 96.683 20.6812 96.5821 20.9685C96.2321 21.9617 95.4245 22.486 94.2377 22.486H94.2258C92.562 22.4844 91.6837 21.4827 91.6837 19.5905V10.9691C91.6837 10.8968 91.736 10.8396 91.7989 10.8396H98.2868C98.6443 10.8396 98.934 10.5136 98.934 10.112V8.19947C98.934 7.79781 98.6443 7.47178 98.2868 7.47178H91.7989C91.7345 7.47178 91.6837 7.41296 91.6837 7.34238V3.43671C91.6837 3.03506 91.3934 2.70903 91.0359 2.70903H88.98C88.6225 2.70903 88.3322 3.03506 88.3322 3.43671V19.7366C88.3322 23.5415 90.6348 25.9985 94.1974 25.9985L94.2303 25.9968H94.2452C94.2557 25.9968 94.2647 25.9985 94.2752 25.9985C97.2708 25.9985 99.4057 24.2708 99.983 21.3785C100.028 21.1651 99.9821 20.9416 99.8594 20.7702Z" fill="#C209C1"/>
<path d="M84.8162 9.71539C83.4995 8.23144 81.746 7.39283 79.8757 7.35753C77.9756 7.32225 76.1756 8.12051 74.8065 9.61287C73.4075 11.1371 72.637 13.1757 72.637 15.352C72.637 15.352 72.637 16.0763 72.637 17.1486V25.5649C72.637 25.7464 72.7672 25.8926 72.9288 25.8926H75.6908C75.8524 25.8926 75.9825 25.7464 75.9825 25.5649V15.2462C75.9825 14.1152 76.3851 13.0547 77.1167 12.2615C77.8483 11.4683 78.8134 11.0447 79.8339 11.0716C81.7939 11.1203 83.513 12.9908 83.513 15.0731L83.5115 15.2596C83.51 15.3487 83.5414 15.4327 83.5983 15.4965C83.6552 15.5605 83.73 15.594 83.8108 15.5957C84.4362 15.5974 85.907 15.5974 86.5593 15.5957C86.7239 15.5957 86.8586 15.4462 86.8586 15.263V15.2428C86.8586 13.1639 86.1329 11.201 84.8162 9.71539Z" fill="#C209C1"/>
<path d="M37.8334 19.3334H35.3856C35.2824 19.3334 35.1866 19.3838 35.1208 19.4696C35.0923 19.5048 35.0699 19.5434 35.0534 19.5888C34.3875 21.5081 32.9692 22.6105 31.1588 22.6105C29.8107 22.6105 28.5927 22.0172 27.7294 20.9417C26.8676 19.8678 26.3933 18.3603 26.3933 16.6949C26.3933 15.0143 26.8676 13.4951 27.7294 12.4162C28.5912 11.3372 29.8092 10.744 31.1588 10.744C32.9946 10.744 34.425 11.8565 35.0848 13.7959C35.1387 13.9539 35.2689 14.0547 35.4155 14.0547H37.8633C37.9755 14.0547 38.0788 13.9975 38.1491 13.8951C38.2044 13.8127 38.2269 13.7085 38.2208 13.606C38.2044 13.3439 38.1625 13.0699 38.0967 12.796C38.0862 12.7455 38.0623 12.6615 38.0623 12.6615C37.7242 11.3944 36.9955 10.4146 36.9641 10.3726C36.9625 10.3709 36.961 10.3692 36.9596 10.3675C35.622 8.4231 33.5632 7.35425 31.1588 7.35425C28.8575 7.35425 26.7793 8.34412 25.3086 10.1423C23.9021 11.8615 23.1271 14.1892 23.1271 16.6932C23.1271 19.1788 23.8931 21.4895 25.2861 23.2005C26.7748 25.0305 28.8052 25.9969 31.1603 25.9969C32.1627 25.9969 33.0784 25.8305 33.8954 25.5011C35.7895 24.6558 37.2873 23.239 38.0668 20.5887C38.1326 20.3149 38.176 20.0409 38.1909 19.7787C38.197 19.6763 38.176 19.572 38.1191 19.4897C38.0489 19.3906 37.9456 19.3334 37.8334 19.3334Z" fill="#C209C1"/>
<path d="M19.681 0C18.315 0 17.2018 1.24867 17.2018 2.78471C17.2018 4.32076 18.3135 5.56943 19.681 5.56943C21.0276 5.56943 22.1243 4.32076 22.1243 2.78471C22.1243 1.24867 21.0276 0 19.681 0Z" fill="#C209C1"/>
<path d="M8.11698 0H8.10501C5.98936 0 3.98741 0.931038 2.46726 2.62338C2.32362 2.78303 2.0573 3.11747 2.0573 3.11747C1.96603 3.2351 1.87775 3.35443 1.79247 3.47711C1.78199 3.49223 1.75806 3.52753 1.75806 3.52753C0.689757 5.06693 0.0718184 6.94582 0 8.93731V25.5598C0 25.6271 0.0179546 25.6909 0.0493752 25.743C0.101742 25.8305 0.191516 25.8876 0.291762 25.8876H3.05078C3.21238 25.8876 3.34255 25.7414 3.34255 25.5598V17.0999C3.34255 17.041 3.37846 17.0142 3.39342 17.0057C3.42634 16.9872 3.46375 16.9906 3.49367 17.0142C4.85224 18.0964 6.4472 18.6594 8.10351 18.6594C9.36781 18.6594 10.5424 18.33 11.6271 17.7318C14.3517 16.2293 16.234 13.0328 16.234 9.32552C16.234 4.16951 12.5996 0 8.11698 0ZM8.10501 15.095C5.38489 15.095 3.17198 12.5102 3.17198 9.33391C3.17198 6.15763 5.38489 3.57291 8.10501 3.57291C10.8251 3.57291 13.038 6.15763 13.038 9.33391C13.038 12.5102 10.8251 15.095 8.10501 15.095Z" fill="#C209C1"/>
<path d="M70.7456 16.5672C70.6932 11.4767 67.0784 7.35425 62.6391 7.35425C58.1684 7.35425 54.5311 11.5372 54.5311 16.6781C54.5311 20.8039 56.8757 24.3113 60.112 25.5347C60.1255 25.5398 60.1404 25.5448 60.1539 25.5515C60.1913 25.5649 60.2287 25.5801 60.2676 25.5935C60.9813 25.8557 61.7713 25.9986 62.6032 25.9986C64.6231 25.9986 66.5442 25.1448 67.5587 23.8508C67.6051 23.792 67.6933 23.8289 67.6933 23.908C67.6933 24.5802 67.6933 25.3297 67.6933 25.4692V25.5566C67.6933 25.7398 67.8265 25.8893 67.9896 25.8893H70.4509C70.614 25.8893 70.7471 25.7398 70.7471 25.5566V16.5672H70.7456ZM62.6391 22.4189C59.8875 22.4189 57.6492 19.8427 57.6492 16.6781C57.6492 13.5136 59.8875 10.9372 62.6391 10.9372C65.3907 10.9372 67.629 13.5136 67.629 16.6781C67.629 19.8427 65.3907 22.4189 62.6391 22.4189Z" fill="#C209C1"/>
</svg>
