<svg width="17" height="18" viewBox="0 0 17 18" fill="none" xmlns="http://www.w3.org/2000/svg">
<path d="M8.5003 12.9812C8.66934 12.9812 8.81257 12.9229 8.92998 12.8063C8.99149 12.7487 9.04052 12.679 9.07403 12.6017C9.10755 12.5243 9.12484 12.4409 9.12483 12.3566V2.81333L10.9984 4.68618C11.1283 4.80277 11.2782 4.86106 11.4481 4.86106C11.6163 4.86106 11.7595 4.80277 11.8769 4.68618C11.9384 4.62851 11.9874 4.55886 12.0209 4.48151C12.0544 4.40417 12.0717 4.32079 12.0718 4.2365C12.0727 4.15511 12.0557 4.07452 12.022 4.00042C11.9883 3.92632 11.9388 3.86051 11.8769 3.80763L8.94913 0.859702C8.89142 0.798635 8.82183 0.75 8.74466 0.716779C8.66748 0.683557 8.58433 0.666449 8.5003 0.666504C8.41596 0.666657 8.33254 0.684101 8.2552 0.71776C8.17786 0.751419 8.10824 0.800578 8.05064 0.8622L5.1245 3.80847C5.06263 3.86134 5.01311 3.92715 4.97944 4.00125C4.94577 4.07535 4.92877 4.15594 4.92965 4.23733C4.92965 4.40638 4.9946 4.55627 5.1245 4.68701C5.24108 4.8036 5.38514 4.86189 5.55418 4.86189C5.72322 4.86189 5.87311 4.8036 6.00301 4.68701L7.87661 2.81333V12.3566C7.87661 12.5257 7.93489 12.6756 8.05147 12.8063C8.18221 12.9229 8.3321 12.9812 8.50114 12.9812H8.5003Z" fill="#C209C1"/>
<path d="M1.16267 10.0141C1.04526 9.89756 0.908692 9.83927 0.752142 9.83927V9.83843C0.675473 9.83818 0.599567 9.85365 0.529104 9.88387C0.458641 9.91409 0.395117 9.95842 0.34245 10.0141C0.225038 10.1182 0.166748 10.2548 0.166748 10.4239V13.5858C0.166748 14.6134 0.524813 15.4986 1.24094 16.2398C1.96873 16.9684 2.84058 17.3332 3.85565 17.3332H13.1453C14.1604 17.3332 15.0248 16.9684 15.7409 16.2398C16.4695 15.4986 16.8334 14.6134 16.8334 13.5858V10.4239C16.8334 10.2548 16.7751 10.1182 16.6585 10.0133C16.5411 9.89673 16.4046 9.83843 16.2489 9.83843C16.1722 9.83818 16.0963 9.85365 16.0258 9.88387C15.9554 9.91409 15.8918 9.95842 15.8392 10.0141C15.7209 10.1182 15.6626 10.2548 15.6626 10.4239V13.5866C15.6626 14.2895 15.4161 14.894 14.9215 15.402C14.4402 15.8958 13.8482 16.1432 13.1453 16.1432H3.85565C3.15284 16.1432 2.55412 15.8958 2.06033 15.402C1.57902 14.894 1.33754 14.2895 1.33754 13.5866V10.4247C1.33754 10.2556 1.27925 10.1191 1.16267 10.0141Z" fill="#C209C1"/>
</svg>
